<svg viewBox="0 0 512 512" xmlns="http://www.w3.org/2000/svg"><path d="M0 0h512v512h-512z"/><path d="M226.071 24.213l-139.008 463.654h46.886l93.121-285.877v285.877h52.096v-281.97l92.471 281.97h46.886l-140.658-463.654h-51.795z" fill="#fff"/><path d="M446.553 253.028c0 105.096-85.195 190.291-190.291 190.291s-190.291-85.195-190.291-190.291 85.195-190.291 190.291-190.291 190.291 85.195 190.291 190.291z" fill="#fff" stroke="#000" stroke-width="20.259"/><path d="M395.04 253.315c0 76.484-62.002 138.486-138.486 138.486s-138.486-62.002-138.486-138.486 62.002-138.486 138.486-138.486 138.486 62.002 138.486 138.486z"/><path d="M355.827 253.082c0 54.959-44.552 99.511-99.511 99.511s-99.511-44.552-99.511-99.511 44.552-99.511 99.511-99.511 99.511 44.552 99.511 99.511z" fill="#fff"/><path d="M316.16 253.08c0 33.052-26.793 59.845-59.845 59.845s-59.845-26.793-59.845-59.845 26.793-59.845 59.845-59.845 59.845 26.793 59.845 59.845z"/><path d="M285.639 253.438c0 15.994-12.966 28.96-28.96 28.96s-28.96-12.966-28.96-28.96 12.966-28.96 28.96-28.96 28.96 12.966 28.96 28.96z" fill="#fff"/></svg>