<svg viewBox="0 0 512 512" xmlns="http://www.w3.org/2000/svg"><path d="M0 0h512v512h-512z"/><path d="M21.885 178.291l111.42 111.42 131-34.635-111.42-111.42z" fill="#fff"/><path d="M89.103 52.196l-31.442 31.444 419.226 419.815h25.037v-37.846l-412.821-413.412z" fill="#fff" stroke="#000" stroke-width="18.689"/><path d="M183.299 18.129l111.42 111.42-34.636 131.002-111.42-111.42zm-161.847 399.459l69.922 69.922 82.211-21.736-69.922-69.922z" fill="#fff"/><path d="M69.888 334.014l-28.53 28.532 140.906 140.908h56.479l-168.855-169.44z" fill="#fff" stroke="#000" stroke-width="18.689"/><path d="M123.292 317.017l69.922 69.922-21.736 82.211-69.922-69.922zm195.28-134.722l69.922 69.922 82.211-21.736-69.922-69.922z" fill="#fff"/><path d="M366.84 98.778l-27.949 28.532 163.032 163.035v-56.481l-135.083-135.087z" fill="#fff" stroke="#000" stroke-width="18.689"/><path d="M420.395 81.711l69.922 69.922-21.736 82.211-69.922-69.922zm-173.722 351.187l44.8 44.8 52.675-13.927-44.8-44.8zm65.523-64.268l44.8 44.8-13.926 52.674-44.8-44.8z" fill="#fff"/><path d="M270.747 392.065l110.879 110.879" stroke="#fff" stroke-width="18.689" fill="none"/><path d="M38.291 195.297l51.347-1.009-44.299 17.618m41.721 36.279l37.714 2.345-25.478 17.62m-4.412-9.774l37.714 2.345-25.478 17.62m152.53-192.812l.37 63.564 21.636-48.331m-60.847-57.331l3.218 47.29 17.162-27.988m99.33 144.881l35.712 2.431-21.137 12.957m-281.5 248.501h36.063l-18.315 17.19m233.211-112.1l4.211 24.676 11.18-10.105"/><path d="M284.984 504.189h133.483" stroke="#000" stroke-width="18.689" fill="none"/><path d="M164.246 356.388l2.433 35.71 12.957-21.137"/></svg>