<svg viewBox="0 0 512 512" xmlns="http://www.w3.org/2000/svg"><path d="M0 0h512v512h-512z"/><g stroke="#000"><path d="M308.063 23.276c-165.108-66.288-343.195 134.801-286.074 292.459 72.329-42.047 147.741-51.562 187.471-11.873 39.781 39.738 30.218 115.067-11.873 187.471 157.659 57.122 358.748-120.966 292.459-286.074-76.808 44.952-132.326 36.837-175.529-6.453-43.128-43.214-51.345-98.825-6.453-175.529z" fill="#fff"/><path d="M299.009 81.02c-120.373-14.28-229.221 80.306-211.761 216.271m345.261-82.77c14.28 120.373-80.306 229.221-216.271 211.761" fill="none"/><path d="M332.108 136.49l-321.367 321.365v45.482h41.892l323.161-323.159-43.686-43.686zm-37.121 22.992l57.815 57.815-132.566 132.566-57.815-57.815 132.566-132.566z" fill="#fff"/></g></svg>