<svg viewBox="0 0 512 512" xmlns="http://www.w3.org/2000/svg"><path d="M0 0h512v512h-512z"/><g stroke="#000"><path d="M255.093 54.991c-83.316 24.824-142.882 86.222-142.882 158.036s59.566 132.523 142.882 157.348c83.314-24.826 141.977-85.538 141.977-157.348s-58.662-133.212-141.977-158.036z" fill="#fff"/><path d="M255.574 59.317v302.168" fill="none"/><path d="M155.827 315.519c-41.453 31.657-61.996 71.68-83.757 111.216 32.86 33.669 70.355 51.902 114.213 54.083 9.103-44.58 26.366-85.076 67.767-113.499l-98.223-51.799zm200.254 0c41.453 31.657 61.996 71.68 83.757 111.216-32.86 33.669-70.355 51.902-114.213 54.083-9.103-44.58-26.366-85.076-67.767-113.499l98.223-51.799z" fill="#fff" fill-rule="evenodd"/><path d="M100.244 382.553c25.28 20.804 60.254 43.858 96.7 51.037m-67.006-88.364c25.28 20.806 60.254 43.858 96.7 51.039m187.31-13.712c-25.28 20.804-60.254 43.858-96.7 51.037m67.006-88.364c-25.28 20.806-60.254 43.858-96.7 51.039" fill="none"/><path d="M502.199 175.669c4.936-88.089-63.737-116.047-144.517-110.05-.557 23.731-5.564 46.68-13.514 70.583 30.888 30.969 85.427 61.484 158.031 39.467z" fill="#fff" fill-rule="evenodd"/><path d="M372.151 164.775c27.553-25.639 41.586-63.25 35.331-95.48m56.208 18.165c1.549 33.322-12.68 68.241-36.304 88.496" fill="none"/><path d="M10.608 175.669c-4.936-88.089 63.737-116.047 144.517-110.05.557 23.731 5.564 46.68 13.514 70.583-30.888 30.969-85.427 61.484-158.031 39.467z" fill="#fff" fill-rule="evenodd"/><path d="M140.656 164.775c-27.553-25.639-41.586-63.25-35.331-95.48m-56.208 18.165c-1.549 33.322 12.68 68.241 36.304 88.496" fill="none"/><path d="M178.354 52.827c51.777 35.078 103.553 25.538 155.33 0v61.698c-51.777 25.512-103.553 27.291-155.33 0v-61.698z" fill="#fff"/></g></svg>