<svg viewBox="0 0 512 512" xmlns="http://www.w3.org/2000/svg"><path d="M0 0h512v512h-512z"/><g fill="#fff"><path d="M116.203 322.494c119.68-119.68 228.81-226.548 375.008-308.028-76.114 143.553-190.46 250.741-308.458 368.739" fill-rule="evenodd"/><path d="M355.484 146.953l-218.764 218.763" fill-rule="evenodd" stroke="#000" stroke-width="18.695"/><path d="M56.491 282.166l163.779 163.779 28.518-28.518c-68.304-39.465-127.579-92.595-163.779-163.779l-28.518 28.518zm-37.09 172.807l28.06 28.06c28.862-43.764 64.335-80.92 108.94-108.94l-28.06-28.06c-26.418 46.208-64.854 80.401-108.94 108.94z"/></g><g fill="#fff"><path d="M395.19 322.494c-119.68-119.68-228.81-226.548-375.008-308.028 76.114 143.553 190.46 250.741 308.458 368.739" fill-rule="evenodd"/><path d="M155.909 146.953l218.764 218.763" fill-rule="evenodd" stroke="#000" stroke-width="18.695"/><path d="M454.902 282.166l-163.779 163.779-28.518-28.518c68.304-39.465 127.579-92.595 163.779-163.779l28.518 28.518zm37.09 172.807l-28.06 28.06c-28.862-43.764-64.335-80.92-108.94-108.94l28.06-28.06c26.418 46.208 64.854 80.401 108.94 108.94z"/></g><path d="M174.851 240.832l87.894 90.815m-14.016-162.94l93.151 87.894" stroke="#000" stroke-width="18.689" fill="none"/></svg>