<svg viewBox="0 0 512 512" xmlns="http://www.w3.org/2000/svg"><path d="M0 0h512v512h-512z"/><g fill="#fff"><path d="M204.262 14.524c-77.531 69.77-17.706 109.268 59.157 52.203 51.638-38.34 71.439 23.49 47.718 53.505-58.437 73.947-172.578 34.181-89.354 7.008-113.371-36.547-121.296 71.392-90.524 104.54 38.863 41.859 124.767 26.256 165.278-7.008 37.108-30.47 21.75-60.869-22.778-36.794 35.316-52.642 95.265-16.586 94.026 35.624-.848 35.23-28.5 88.774-124.98 110.963 196.402 32.01 316.186-144.252 218.423-213.751 7.603 41.44-36.269 85.194-65.993 80.595 45.568-121.235-23.452-243.609-131.988-146.589-36.02 32.199-71.798 3.22-58.985-40.296z" fill-rule="evenodd"/><path d="M210.125 320.377l19.814 49.7-76.974 30.688-19.814-49.7zm11.083 55.99l19.814 49.7-76.974 30.688-19.814-49.7z"/><path d="M110.237 318.798c19.335-54.772 12.607-102.281-14.016-102.787-6.145-.112-13.417 2.282-21.608 7.591 1.273 50.758-26.756 95.373-64.827 130.237v150.092h170.533c16.289-5.397 34.456-11.822 57.234-22.193 18.733-7.468 7.956-42.117-4.672-47.889m-156.491-101.762l189.426-75.519c32.565-12.983 51.969 31.929 18.111 45.428l-136.614 54.464m79.809 25.771c12.626 10.856 21.653 44.015 7.505 49.657l-58.82 23.45m45.07-123.66c11.114 11 16.057 29.076 10.475 46.008l-62.64 24.974" stroke="#000" stroke-width="18.689"/></g></svg>