<svg viewBox="0 0 512 512" xmlns="http://www.w3.org/2000/svg"><path d="M0 0h512v512h-512z"/><path d="M144.224 143.103l63.164 3.442c111.698 123.769 223.121 253.092 288.662 348.385-93.972-66.743-221.54-174.391-348.383-288.662zm-99.295-99.295c14.392 59.237 74.078 118.917 133.313 133.313-14.394-59.232-74.08-118.917-133.313-133.313zm33.921-21.082c10.713 10.713 7.08 31.713-8.112 46.905s-36.192 18.825-46.905 8.112-7.08-31.713 8.112-46.905 36.192-18.825 46.905-8.112z" fill="#fff"/><path d="M109.803 243.421c0-73.627 59.688-133.311 133.311-133.315" stroke="#fff" stroke-width="18.689" fill="none"/></svg>