<svg viewBox="0 0 512 512" xmlns="http://www.w3.org/2000/svg"><path d="M0 0h512v512h-512z"/><path d="M320.928 13.269c-16.646 34.583-38.446 60.155-63.074 60.155-24.521 0-47.035-25.252-63.657-59.57.366 39.358-9.724 90.883-30.952 105.123s-49.641-11.998-78.843-32.122c17.455 34.041 42.1 67.494 29.786 92.275-12.211 24.575-59.159 35.959-92.86 35.624 29.337 19.29 78.842 45.787 78.843 74.171s-49.504 53.711-78.843 73.001c33.701-.333 80.647 11.634 92.86 36.209 12.228 24.609-9.019 56.307-33.738 85.56 44.826-15.412 65.133-5.745 85.366 10.802h177.738c19.847-14.62 39.801-25.659 89.692-9.29-26.233-30.262-42.199-62.463-29.969-87.074 12.256-24.665 56.649-36.633 90.524-36.209-29.401-19.298-75.337-44.585-75.337-73.001s45.938-54.873 75.337-74.171c-33.875.424-78.266-10.961-90.524-35.624-12.314-24.781 9.995-58.234 27.45-92.275-29.201 20.122-57.581 46.383-78.843 32.122s-31.397-66.146-30.952-105.706z" fill="#fff"/><path d="M256.918 88.024c-72.487 0-131.405 96.299-131.403 214.919 0 96.377 38.829 177.77 92.275 204.991h78.258c53.446-27.222 92.275-108.612 92.275-204.991 0-118.618-58.916-214.919-131.403-214.919z"/><path d="M250.779 97.773c-25.553 3.321-45.503 31.116-45.503 64.664 0 18.58 6.365 35.172 16.169 46.994-53.141 9.998-57.159 99.547-57.159 162.413h36.852l9.778 131.209h93.635l8.649-131.209h34.974c0-63.042 1.265-154.166-56.783-163.166 9.384-11.768 15.418-28.123 15.418-46.243-.001-35.783-22.783-64.664-50.768-64.664-1.749 0-3.56-.222-5.265 0z" fill="#fff" fill-rule="evenodd" stroke="#000" stroke-width="18.689"/></svg>