<svg viewBox="0 0 512 512" xmlns="http://www.w3.org/2000/svg"><path d="M0 0h512v512h-512z"/><path d="M20.575 354.739l214.115-313.499c20.856 6.107 43.442 19.715 55.849 38.487l-269.16 385.658-.802-110.644z" fill="#fff"/><path d="M162.344 34.299c-33.864 51.594-28.291 75.132-28.291 118.594 106.164 58.781 161.114 169.541 33.873 249.838 51.945 15.119 100.376 15.897 143.668 5.84l8.761-55.483 37.069 38.627c30.703-17.595 75.971-50.037 96.059-78.942l-32.094-55.466 54.898 15.184c33.688-51.78 37.301-164.026-2.336-230.688-71.43 159.167-206.473 74.304-311.606-7.509z" fill="#fff" fill-rule="evenodd" stroke="#000" stroke-width="18.689"/><path d="M226.173 298.499c84.921 11.535 181.292-84.504 155.274-175.095" stroke="#000" stroke-width="18.689" fill="none"/><path d="M185.514 64.483c-34.933-34.396-91.677-49.143-158.053-49.143 62.956 25.426 108.833 61.332 115.841 132.07" fill="#fff" fill-rule="evenodd"/></svg>