<svg viewBox="0 0 512 512" xmlns="http://www.w3.org/2000/svg"><path d="M0 0h512v512h-512z"/><path d="M10.299 11.329v49.641l302.521 302.521 46.721-47.305-305.442-304.857h-43.802zm191.294 128.556c0 34.362-27.856 62.218-62.218 62.218s-62.218-27.856-62.218-62.218 27.856-62.218 62.218-62.218 62.218 27.856 62.218 62.218zm49.993 51.991c0 34.362-27.856 62.218-62.218 62.218s-62.218-27.856-62.218-62.218 27.856-62.218 62.218-62.218 62.218 27.856 62.218 62.218zm56.991 56.993c0 34.362-27.856 62.218-62.218 62.218s-62.218-27.856-62.218-62.218 27.856-62.218 62.218-62.218 62.218 27.856 62.218 62.218z" fill="#fff" stroke="#000" stroke-width="18.689"/><path d="M492.291 494.309l-362.904-139.903 16.524-47.191 132.201-27.085 27.087-132.201 47.759-17.094 139.333 363.474z" fill="#fff"/><path d="M294.983 127.048l105.391 275.204-274.773-105.82m176.631-162.134l-32.585 137.227-136.795 32.157" stroke="#000" stroke-width="18.689" fill="none"/></svg>