<svg viewBox="0 0 512 512" xmlns="http://www.w3.org/2000/svg"><path d="M0 0h512v512h-512z"/><path d="M356.277 422.488l94.475-44.056c30.95-17.687-1.254-57.815-30.631-41.696l-50.668 21.961-41.614-64.436-59.772 12.101zm-13.533-83.508l-87.261-47.596-81.921 47.596c47.041 49.869 52.635 99.769 0 149.694h169.182c-52.014-49.899-40.547-99.797 0-149.694zm-37.726-126.987c9.025 33.683-4.456 66.562-30.111 73.436s-53.769-14.859-62.794-48.542 4.457-66.559 30.111-73.433 53.769 14.857 62.794 48.54zm-118.882 93.848c0 21.926 32.48 39.701 72.546 39.701s72.546-17.775 72.546-39.701-32.48-39.7-72.546-39.7-72.546 17.773-72.546 39.7zm-25.475 116.647l-94.475-44.056c-30.95-17.687 1.254-57.815 30.631-41.696l50.668 21.961 41.614-64.436 59.772 12.101z" fill="#fff"/><path d="M130.976 257.583c0 23.927-19.397 43.322-43.322 43.322s-43.322-19.395-43.322-43.322 19.397-43.322 43.322-43.322 43.322 19.397 43.322 43.322zm42.095-141.229c0 23.927-19.397 43.322-43.322 43.322s-43.322-19.395-43.322-43.322 19.397-43.322 43.322-43.322 43.322 19.397 43.322 43.322zm152.156-61.177c0 23.927-19.397 43.322-43.322 43.322s-43.322-19.395-43.322-43.322 19.397-43.322 43.322-43.322 43.322 19.397 43.322 43.322zm132.127 83.824c0 23.927-19.397 43.322-43.322 43.322s-43.322-19.395-43.322-43.322 19.397-43.322 43.322-43.322 43.322 19.397 43.322 43.322zm19.856 169.718c0 23.927-19.397 43.322-43.322 43.322s-43.322-19.395-43.322-43.322 19.397-43.322 43.322-43.322 43.322 19.397 43.322 43.322z" fill="#fff" stroke="#000" stroke-width="18.689"/></svg>