<svg viewBox="0 0 512 512" xmlns="http://www.w3.org/2000/svg"><path d="M0 0h512v512h-512z"/><g stroke="#000"><path d="M21.147 186.136c56.137-111.69 101.873-154.087 164.409-111.006l-89.182 154.427-75.227-43.419zm100.623-36.306l78.571-136.049c26.839-8.371 74.252 8.866 82.871 30.182l-78.571 136.049-82.871-30.182zm90.753 16.533l78.571-136.047c25.772-6.522 70.402 15.534 78.006 38.605l-78.571 136.049-78.006-38.605zm73.656 46.141l78.569-136.045c24.4-4.145 65.453 24.106 71.753 49.437l-78.571 136.045-71.751-49.439zm66.767 59.414l78.569-136.045c24.093-3.616 64.354 26.011 70.363 51.846l-78.569 136.045-70.363-51.844z" fill="#fff"/><path d="M162.195 389.877l-9.281-238.694-101.427-34.51c-25.783 110.139.262 229.23 110.709 273.206zm-14.506-285.216c114.748 29.791 248.577 123.649 296.894 171.363-143.186 286.92-505.207 156.422-296.894-171.363z" fill="#fff" fill-rule="evenodd"/><path d="M8.906 502.954h257.899c11.37-22.355 21.273-48.112 27.653-78.152-71.353-20.072-190.485-76.76-229.643-132.857-24.74 30.788-42.894 59.916-55.909 87.169v123.84zm218.652-366.581c0 24.352-19.727 44.097-44.057 44.097s-44.057-19.745-44.057-44.097 19.727-44.097 44.057-44.097 44.057 19.745 44.057 44.097zm82.923 32.837c0 24.352-19.727 44.097-44.057 44.097s-44.057-19.745-44.057-44.097 19.727-44.097 44.057-44.097 44.057 19.745 44.057 44.097zm73.832 47.176c0 24.116-19.536 43.669-43.629 43.669s-43.629-19.553-43.629-43.669 19.536-43.669 43.629-43.669 43.629 19.553 43.629 43.669zm63.436 53.473c0 22.443-18.181 40.641-40.603 40.641s-40.603-18.197-40.603-40.641 18.181-40.641 40.603-40.641 40.603 18.197 40.603 40.641z" fill="#fff"/><path d="M33.311 328.324c5.965 56.899 132.444 125.98 266.774 144.537m-288.967-96.647c5.3 50.196 117.658 111.135 236.99 127.507m-239.911-58.924c2.478 21.868 55.029 49.755 110.842 58.374" fill="none"/></g></svg>